<svg width="38" height="32" viewBox="0 0 38 32" fill="none" xmlns="http://www.w3.org/2000/svg">
<g clip-path="url(#clip0_405_836)">
<path d="M18 16.1138C18 14.9464 18.9464 14 20.1138 14H29C33.9706 14 38 18.0294 38 23C38 27.9706 33.9706 32 29 32H20.1138C18.9464 32 18 31.0536 18 29.8862V16.1138Z" fill="#5637FB"/>
<path d="M18 2C18 0.89543 18.8954 0 20 0H23C25.7614 0 28 2.23858 28 5C28 7.76142 25.7614 10 23 10H20C18.8954 10 18 9.10457 18 8V2Z" fill="#5637FB"/>
<path d="M0 7C0 3.13401 3.13401 0 7 0C10.866 0 14 3.13401 14 7V15.7895C14 17.0103 13.0103 18 11.7895 18H2.21053C0.989686 18 0 17.0103 0 15.7895V7Z" fill="#5637FB"/>
<path d="M12 22H2C0.89543 22 0 22.8954 0 24V30C0 31.1046 0.89543 32 2 32H12C13.1046 32 14 31.1046 14 30V24C14 22.8954 13.1046 22 12 22Z" fill="#5637FB"/>
</g>
<defs>
<clipPath id="clip0_405_836">
<rect width="38" height="32" fill="white"/>
</clipPath>
</defs>
</svg>
