<svg width="124" height="32" viewBox="0 0 124 32" fill="none" xmlns="http://www.w3.org/2000/svg">
<g clip-path="url(#clip0_405_806)">
<path d="M18 16.1138C18 14.9464 18.9464 14 20.1138 14H29C33.9706 14 38 18.0294 38 23C38 27.9706 33.9706 32 29 32H20.1138C18.9464 32 18 31.0536 18 29.8862V16.1138Z" fill="#5637FB"/>
<path d="M18 2C18 0.89543 18.8954 0 20 0H23C25.7614 0 28 2.23858 28 5C28 7.76142 25.7614 10 23 10H20C18.8954 10 18 9.10457 18 8V2Z" fill="#5637FB"/>
<path d="M0 7C0 3.13401 3.13401 0 7 0C10.866 0 14 3.13401 14 7V15.7895C14 17.0103 13.0103 18 11.7895 18H2.21053C0.989686 18 0 17.0103 0 15.7895V7Z" fill="#5637FB"/>
<path d="M12 22H2C0.89543 22 0 22.8954 0 24V30C0 31.1046 0.89543 32 2 32H12C13.1046 32 14 31.1046 14 30V24C14 22.8954 13.1046 22 12 22Z" fill="#5637FB"/>
</g>
<path d="M54.92 13.99C53.94 12.89 52.76 12.35 51.38 12.35C49.84 12.35 48.54 12.89 47.52 13.95C46.5 15.01 46 16.37 46 17.99C46 19.61 46.5 20.99 47.52 22.09C48.54 23.19 49.82 23.73 51.38 23.73C52.8 23.73 53.98 23.19 54.92 22.13V23.47H57.4V12.61H54.92V13.99ZM54.98 18.03C54.98 18.97 54.68 19.75 54.08 20.39C53.48 21.03 52.72 21.35 51.78 21.35C50.84 21.35 50.08 21.03 49.48 20.39C48.9 19.75 48.6 18.97 48.6 18.03C48.6 17.11 48.9 16.33 49.48 15.69C50.08 15.05 50.84 14.73 51.78 14.73C52.72 14.73 53.48 15.05 54.08 15.69C54.68 16.33 54.98 17.11 54.98 18.03Z" fill="#111111"/>
<path d="M66.3166 12.35C64.9366 12.35 63.7766 12.91 62.8566 14.01V8.27002H60.2566V23.47H62.8166V22.03C63.7366 23.17 64.8966 23.73 66.2966 23.73C67.8366 23.73 69.1366 23.19 70.1566 22.11C71.1966 21.01 71.7166 19.67 71.7166 18.05C71.7166 16.43 71.1966 15.09 70.1566 13.99C69.1366 12.89 67.8566 12.35 66.3166 12.35ZM69.0566 18.03C69.0566 18.97 68.7566 19.75 68.1766 20.39C67.5966 21.01 66.8566 21.33 65.9166 21.33C64.9766 21.33 64.2166 21.01 63.6366 20.39C63.0566 19.75 62.7566 18.97 62.7566 18.03C62.7566 17.11 63.0566 16.33 63.6366 15.71C64.2166 15.07 64.9766 14.75 65.9166 14.75C66.8566 14.75 67.5966 15.07 68.1766 15.71C68.7566 16.33 69.0566 17.11 69.0566 18.03Z" fill="#111111"/>
<path d="M78.7322 23.73C81.7922 23.73 83.6522 21.95 83.6522 18.93V12.61H81.0322V18.93C81.0322 20.39 80.1722 21.35 78.7322 21.35C77.3122 21.35 76.4522 20.39 76.4522 18.93V12.61H73.8322V18.93C73.8322 21.95 75.7122 23.73 78.7322 23.73Z" fill="#111111"/>
<path d="M88.9597 23.47V17.61C88.9597 15.91 90.0597 14.71 91.5997 14.71C93.0397 14.71 93.9797 15.75 93.9797 17.57V23.47H96.5997V16.85C96.5997 15.39 96.1797 14.29 95.3597 13.51C94.5397 12.73 93.5197 12.33 92.3397 12.33C90.7597 12.33 89.4997 13.03 88.9197 14.13V12.61H86.3597V23.47H88.9597Z" fill="#111111"/>
<path d="M107.514 13.99C106.614 12.89 105.474 12.35 104.094 12.35C102.574 12.35 101.294 12.89 100.254 13.99C99.2341 15.09 98.7141 16.43 98.7141 18.03C98.7141 19.65 99.2341 21.01 100.254 22.11C101.274 23.19 102.574 23.73 104.114 23.73C105.514 23.73 106.674 23.17 107.574 22.05V23.47H110.114V8.27002H107.514V13.99ZM104.474 21.35C103.534 21.35 102.774 21.03 102.194 20.39C101.614 19.75 101.314 18.97 101.314 18.03C101.314 17.11 101.614 16.33 102.194 15.69C102.774 15.05 103.534 14.73 104.474 14.73C105.414 14.73 106.174 15.05 106.754 15.69C107.354 16.33 107.654 17.11 107.654 18.03C107.654 18.97 107.354 19.75 106.774 20.39C106.194 21.03 105.414 21.35 104.474 21.35Z" fill="#111111"/>
<path d="M121.311 13.99C120.331 12.89 119.151 12.35 117.771 12.35C116.231 12.35 114.931 12.89 113.911 13.95C112.891 15.01 112.391 16.37 112.391 17.99C112.391 19.61 112.891 20.99 113.911 22.09C114.931 23.19 116.211 23.73 117.771 23.73C119.191 23.73 120.371 23.19 121.311 22.13V23.47H123.791V12.61H121.311V13.99ZM121.371 18.03C121.371 18.97 121.071 19.75 120.471 20.39C119.871 21.03 119.111 21.35 118.171 21.35C117.231 21.35 116.471 21.03 115.871 20.39C115.291 19.75 114.991 18.97 114.991 18.03C114.991 17.11 115.291 16.33 115.871 15.69C116.471 15.05 117.231 14.73 118.171 14.73C119.111 14.73 119.871 15.05 120.471 15.69C121.071 16.33 121.371 17.11 121.371 18.03Z" fill="#111111"/>
<defs>
<clipPath id="clip0_405_806">
<rect width="38" height="32" fill="white"/>
</clipPath>
</defs>
</svg>
