<svg width="24" height="24" viewBox="0 0 24 24" fill="none" xmlns="http://www.w3.org/2000/svg">
<path d="M18.125 9H5.875C5.64294 9 5.42038 8.89464 5.25628 8.70711C5.09219 8.51957 5 8.26522 5 8C5 7.73478 5.09219 7.48043 5.25628 7.29289C5.42038 7.10536 5.64294 7 5.875 7H18.125C18.3571 7 18.5796 7.10536 18.7437 7.29289C18.9078 7.48043 19 7.73478 19 8C19 8.26522 18.9078 8.51957 18.7437 8.70711C18.5796 8.89464 18.3571 9 18.125 9Z" fill="black"/>
<path d="M18.125 13H5.875C5.64294 13 5.42038 12.8946 5.25628 12.7071C5.09219 12.5196 5 12.2652 5 12C5 11.7348 5.09219 11.4804 5.25628 11.2929C5.42038 11.1054 5.64294 11 5.875 11H18.125C18.3571 11 18.5796 11.1054 18.7437 11.2929C18.9078 11.4804 19 11.7348 19 12C19 12.2652 18.9078 12.5196 18.7437 12.7071C18.5796 12.8946 18.3571 13 18.125 13Z" fill="black"/>
<path d="M18.125 17H5.875C5.64294 17 5.42038 16.8946 5.25628 16.7071C5.09219 16.5196 5 16.2652 5 16C5 15.7348 5.09219 15.4804 5.25628 15.2929C5.42038 15.1054 5.64294 15 5.875 15H18.125C18.3571 15 18.5796 15.1054 18.7437 15.2929C18.9078 15.4804 19 15.7348 19 16C19 16.2652 18.9078 16.5196 18.7437 16.7071C18.5796 16.8946 18.3571 17 18.125 17Z" fill="black"/>
</svg>
